<svg xmlns="http://www.w3.org/2000/svg" width="512" height="512" viewBox="0 0 512 512" role="img" aria-label="Evolutionary Resistance Predictor">
<defs>
<linearGradient id="g" x1="0" y1="0" x2="1" y2="1">
<stop offset="0" stop-color="#5A67D8"/>
<stop offset="1" stop-color="#8A5CF6"/>
</linearGradient>
<filter id="s" x="-10%" y="-10%" width="120%" height="120%">
<feDropShadow dx="0" dy="2" stdDeviation="3" flood-color="#00000033"/>
</filter>
</defs>
<rect width="512" height="512" rx="128" fill="url(#g)"/>
<g filter="url(#s)">
<g transform="translate(256 256)">
<g transform="translate(-140,-120)">
<path d="M0,60 C30,0 90,0 120,60 C150,120 210,120 240,60" fill="none" stroke="#ffffff" stroke-width="10" stroke-linecap="round" opacity="0.95"/>
<path d="M0,120 C30,180 90,180 120,120 C150,60 210,60 240,120" fill="none" stroke="#ffffff" stroke-width="10" stroke-linecap="round" opacity="0.85"/>
<g stroke="#ffffff" stroke-width="8" opacity="0.9">
<line x1="30" y1="90" x2="90" y2="90"/>
<line x1="60" y1="45" x2="120" y2="45"/>
<line x1="90" y1="135" x2="150" y2="135"/>
<line x1="150" y1="90" x2="210" y2="90"/>
<line x1="180" y1="45" x2="240" y2="45"/>
<line x1="30" y1="135" x2="60" y2="135"/>
</g>
<g fill="#ffffff">
<circle cx="30" cy="90" r="6"/>
<circle cx="90" cy="90" r="6"/>
<circle cx="60" cy="45" r="6"/>
<circle cx="120" cy="45" r="6"/>
<circle cx="90" cy="135" r="6"/>
<circle cx="150" cy="135" r="6"/>
<circle cx="150" cy="90" r="6"/>
<circle cx="210" cy="90" r="6"/>
<circle cx="180" cy="45" r="6"/>
<circle cx="240" cy="45" r="6"/>
</g>
</g>
<g transform="translate(-150, -150)">
<circle cx="0" cy="0" r="42" fill="#FFFFFF22" stroke="#ffffff" stroke-width="6"/>
<path d="M-16,-6 h32 v12 h-32 z" fill="#ffffff" opacity="0.9"/>
</g>
</g>
</g>
</svg>
